Coordinates
version=1
nRows=17
nColumns=40
inDegrees=yes

Units are S.I. units (second, meters, Newtons, ...)
If the header above contains a line with 'inDegrees', this indicates whether rotational values are in degrees (yes) or radians (no).

endheader
time	pelvis_tilt	pelvis_list	pelvis_rotation	pelvis_tx	pelvis_ty	pelvis_tz	hip_flexion_r	hip_adduction_r	hip_rotation_r	knee_angle_r	knee_angle_r_beta	ankle_angle_r	subtalar_angle_r	mtp_angle_r	hip_flexion_l	hip_adduction_l	hip_rotation_l	knee_angle_l	knee_angle_l_beta	ankle_angle_l	subtalar_angle_l	mtp_angle_l	lumbar_extension	lumbar_bending	lumbar_rotation	arm_flex_r	arm_add_r	arm_rot_r	elbow_flex_r	pro_sup_r	wrist_flex_r	wrist_dev_r	arm_flex_l	arm_add_l	arm_rot_l	elbow_flex_l	pro_sup_l	wrist_flex_l	wrist_dev_l
      7.55500000	     -1.41530493	     -0.51852668	     -1.07396986	     -0.28687516	      1.26055277	     -0.89332680	      3.36379659	     -5.44699912	    -25.43403895	      5.54084007	      0.09670590	    -39.41041656	      0.00000000	      0.00000000	      2.34637960	     -8.06913718	    -14.01415258	      4.50063514	      0.07855090	    -37.80146710	      0.00000000	      0.00000000	     -7.26801852	     -0.21158365	      8.48537355	     18.41662983	    -41.73189923	     86.30686024	     75.34170905	     87.72943202	      0.00000000	      0.00000000	     28.47539228	    -42.98152224	     89.02101202	     84.82412053	     87.92808612	      0.00000000	      0.00000000
      7.56000000	     -1.24026340	     -0.44809066	     -1.30053277	     -0.28758270	      1.26866787	     -0.89299328	      3.57055882	     -5.64214774	    -26.11970922	      6.47025102	      0.11292718	    -39.39832820	      0.00000000	      0.00000000	      2.41159672	     -7.91481201	    -14.02681346	      5.32974735	      0.09302164	    -37.61540703	      0.00000000	      0.00000000	     -7.49833703	     -0.36152362	      8.62359202	     18.72303409	    -41.76510594	     86.53496166	     75.37011613	     87.73337215	      0.00000000	      0.00000000	     28.64581070	    -43.12862518	     89.07212127	     84.70430526	     87.94393413	      0.00000000	      0.00000000
      7.56500000	     -0.90462126	     -0.45745420	     -1.55893386	     -0.28814904	      1.27663424	     -0.89248313	      3.39612812	     -5.63823339	    -26.12629510	      6.88270680	      0.12012590	    -39.40283967	      0.00000000	      0.00000000	      2.20566104	     -7.85633342	    -13.75350549	      5.91825201	      0.10329298	    -37.70903872	      0.00000000	      0.00000000	     -7.89673785	     -0.44978042	      8.81953577	     18.89443713	    -41.72631372	     86.60391965	     75.25978531	     87.73282188	      0.00000000	      0.00000000	     28.77962077	    -43.26487873	     89.06529373	     84.63083912	     87.94033275	      0.00000000	      0.00000000
      7.57000000	     -0.58371752	     -0.36161600	     -1.62696291	     -0.28864451	      1.28426416	     -0.89213683	      3.24792722	     -5.81759380	    -26.64405144	      7.36760742	      0.12858901	    -39.36789082	      0.00000000	      0.00000000	      2.08644506	     -7.68774449	    -13.57689543	      6.59508866	      0.11510601	    -37.44462661	      0.00000000	      0.00000000	     -8.28614759	     -0.65047238	      8.74164049	     19.17082837	    -41.61372251	     86.86990678	     75.12327807	     87.74013278	      0.00000000	      0.00000000	     28.91842935	    -43.52730771	     89.12103712	     84.61785145	     87.95363457	      0.00000000	      0.00000000
      7.57500000	     -0.28519478	     -0.30249410	     -1.73759694	     -0.28926092	      1.29157723	     -0.89172960	      3.05083734	     -5.89633115	    -26.70886953	      7.58596039	      0.13239999	    -39.35937525	      0.00000000	      0.00000000	      1.93836710	     -7.57484675	    -13.29634114	      7.07436731	      0.12347100	    -37.51448692	      0.00000000	      0.00000000	     -8.65093884	     -0.81428352	      8.75428571	     19.32843042	    -41.54103224	     86.96585965	     74.95408088	     87.74074453	      0.00000000	      0.00000000	     29.00803780	    -43.71155317	     89.12708101	     84.57683216	     87.95073230	      0.00000000	      0.00000000
      7.58000000	      0.07018543	     -0.16875968	     -1.71942225	     -0.28952445	      1.29871597	     -0.89140347	      2.72532329	     -6.06578616	    -26.94146968	      7.69705891	      0.13433902	    -39.32869425	      0.00000000	      0.00000000	      1.68899166	     -7.37546751	    -12.98808629	      7.47436260	      0.13045224	    -37.34558421	      0.00000000	      0.00000000	     -9.04138359	     -1.06795191	      8.54145327	     19.52956382	    -41.35648312	     87.12181554	     74.74469063	     87.74472540	      0.00000000	      0.00000000	     29.06023520	    -44.01222587	     89.16435914	     84.63131849	     87.96129963	      0.00000000	      0.00000000
      7.58500000	      0.43729202	     -0.00253421	     -1.70717710	     -0.28984782	      1.30556940	     -0.89111190	      2.34797008	     -6.25482134	    -27.22540333	      7.65150048	      0.13354388	    -39.30578937	      0.00000000	      0.00000000	      1.34993469	     -7.12362901	    -12.54942232	      7.65895124	      0.13367392	    -37.13541435	      0.00000000	      0.00000000	     -9.44345970	     -1.33933860	      8.30352153	     19.78140066	    -41.11696447	     87.33971301	     74.54718859	     87.74988998	      0.00000000	      0.00000000	     29.07388679	    -44.33115050	     89.18564244	     84.75407629	     87.96948738	      0.00000000	      0.00000000
      7.59000000	      0.51213165	      0.04302384	     -1.70684437	     -0.29009763	      1.31177225	     -0.89066037	      2.29728892	     -6.28394568	    -27.25914657	      7.59153582	      0.13249730	    -39.26900161	      0.00000000	      0.00000000	      1.27569772	     -7.04468628	    -12.43576537	      7.69729909	      0.13434321	    -37.11328191	      0.00000000	      0.00000000	     -9.49610253	     -1.45860082	      8.20695552	     19.74849163	    -41.05003818	     87.38159947	     74.52374265	     87.74904435	      0.00000000	      0.00000000	     29.02451958	    -44.55862062	     89.19436303	     84.69993332	     87.97371362	      0.00000000	      0.00000000
      7.59500000	      1.03905199	      0.33430573	     -1.49414368	     -0.29007126	      1.31834767	     -0.89060772	      1.53009219	     -6.51554818	    -27.46628564	      7.05011957	      0.12304780	    -39.23812588	      0.00000000	      0.00000000	      0.61905855	     -6.61960709	    -11.34837729	      7.50085391	      0.13091460	    -36.78076094	      0.00000000	      0.00000000	    -10.01907619	     -1.85857475	      7.62679204	     20.07233788	    -40.66781698	     87.61636036	     74.09750177	     87.74219657	      0.00000000	      0.00000000	     28.95628328	    -45.02173943	     89.17393534	     85.12603596	     87.96512960	      0.00000000	      0.00000000
      7.60000000	      1.24030671	      0.50291074	     -1.29937536	     -0.28992807	      1.32428592	     -0.89040768	      1.15297509	     -6.60960024	    -27.55196579	      6.58166324	      0.11487169	    -39.17517614	      0.00000000	      0.00000000	      0.34526822	     -6.40133820	    -10.90197353	      7.33330142	      0.12799025	    -36.65181095	      0.00000000	      0.00000000	    -10.15206225	     -2.09448089	      7.19369735	     20.14069919	    -40.43791887	     87.66271611	     73.97479537	     87.73678933	      0.00000000	      0.00000000	     28.78370763	    -45.30664833	     89.14581765	     85.18697498	     87.95868305	      0.00000000	      0.00000000
      7.60500000	      1.41271004	      0.66749002	     -1.03767412	     -0.28934479	      1.32991702	     -0.89030380	      0.71654364	     -6.67439744	    -27.77389746	      5.96854248	      0.10417072	    -39.08182206	      0.00000000	      0.00000000	      0.03136568	     -6.18595214	    -10.39794537	      7.02939047	      0.12268601	    -36.44417721	      0.00000000	      0.00000000	    -10.20472234	     -2.33404022	      6.75525194	     20.05329565	    -40.23168536	     87.64192042	     73.83025325	     87.72570419	      0.00000000	      0.00000000	     28.62950216	    -45.63539926	     89.13918873	     85.42584873	     87.95366416	      0.00000000	      0.00000000
      7.61000000	      1.77069214	      0.75834893	     -0.79529827	     -0.28879169	      1.33570337	     -0.89025445	      0.06889879	     -6.64144093	    -27.79579173	      5.29815403	      0.09247023	    -38.99950232	      0.00000000	      0.00000000	     -0.55764800	     -6.04101337	     -9.67349039	      6.57162802	      0.11469655	    -36.22380247	      0.00000000	      0.00000000	    -10.47123781	     -2.46822315	      6.35995118	     19.97104565	    -40.05208441	     87.59796852	     73.63802738	     87.71299425	      0.00000000	      0.00000000	     28.51099217	    -45.88362759	     89.10224440	     85.67886475	     87.93578634	      0.00000000	      0.00000000
      7.61500000	      1.80492451	      0.92027786	     -0.61827156	     -0.28849060	      1.34080444	     -0.89015844	     -0.14426157	     -6.69953675	    -27.90809416	      4.70520453	      0.08212131	    -38.77206479	      0.00000000	      0.00000000	     -0.70837352	     -5.85327438	     -9.54066846	      6.26619875	      0.10936580	    -35.96804953	      0.00000000	      0.00000000	    -10.37409011	     -2.66849102	      6.07028280	     19.85135459	    -39.93004097	     87.49712798	     73.69205701	     87.70438614	      0.00000000	      0.00000000	     28.38748854	    -46.01636556	     89.10253365	     85.72552574	     87.93178083	      0.00000000	      0.00000000
      7.62000000	      2.00966145	      0.97945915	     -0.39942169	     -0.28783913	      1.34607520	     -0.89001577	     -0.68468066	     -6.58334451	    -27.80833349	      3.84505067	      0.06710879	    -38.67275195	      0.00000000	      0.00000000	     -1.13481097	     -5.76724072	     -9.02259860	      5.79604046	      0.10115999	    -35.70904850	      0.00000000	      0.00000000	    -10.45224847	     -2.77075238	      5.74733834	     19.60368926	    -39.75372659	     87.25463237	     73.48087446	     87.68667968	      0.00000000	      0.00000000	     28.23706418	    -46.20456676	     89.03646051	     85.94711607	     87.89886414	      0.00000000	      0.00000000
      7.62500000	      2.00217528	      1.02063627	     -0.19889713	     -0.28715983	      1.35078180	     -0.88995479	     -0.88366953	     -6.50730850	    -27.84515851	      3.25683005	      0.05684241	    -38.38267217	      0.00000000	      0.00000000	     -1.28766252	     -5.71907148	     -8.95098168	      5.40465049	      0.09432895	    -35.38152097	      0.00000000	      0.00000000	    -10.26074515	     -2.84118760	      5.47851640	     19.34798133	    -39.67659917	     87.04903920	     73.42890029	     87.66829617	      0.00000000	      0.00000000	     28.02160524	    -46.27840021	     88.99006390	     86.00504130	     87.88148751	      0.00000000	      0.00000000
      7.63000000	      2.12464187	      1.03063004	     -0.06569229	     -0.28638839	      1.35559806	     -0.88992313	     -1.25924686	     -6.37084672	    -27.78645871	      2.55558263	      0.04460333	    -38.03236766	      0.00000000	      0.00000000	     -1.61963571	     -5.68857076	     -8.93033321	      4.99070275	      0.08710419	    -35.04544667	      0.00000000	      0.00000000	    -10.23655606	     -2.88188587	      5.33734980	     18.97180508	    -39.63263457	     86.71348264	     73.32410892	     87.64573912	      0.00000000	      0.00000000	     27.85425384	    -46.29610112	     88.92095527	     86.08526514	     87.84928941	      0.00000000	      0.00000000
      7.63500000	      1.99749298	      1.02670062	      0.04791158	     -0.28560953	      1.35980298	     -0.88981543	     -1.29594062	     -6.25922960	    -27.73080476	      2.04591445	      0.03570794	    -37.53307522	      0.00000000	      0.00000000	     -1.63776006	     -5.68630101	     -9.20838530	      4.64240018	      0.08102517	    -34.78903040	      0.00000000	      0.00000000	     -9.89035580	     -2.90050414	      5.15945591	     18.68903496	    -39.58540961	     86.53766378	     73.30734757	     87.63266753	      0.00000000	      0.00000000	     27.64074574	    -46.31214014	     88.89070710	     86.10545878	     87.84212605	      0.00000000	      0.00000000
